<?xml version="1.0" encoding="utf-8"?>
<!-- Generator: Adobe Illustrator 18.1.1, SVG Export Plug-In . SVG Version: 6.00 Build 0)  -->
<!DOCTYPE svg PUBLIC "-//W3C//DTD SVG 1.1//EN" "http://www.w3.org/Graphics/SVG/1.1/DTD/svg11.dtd">
<svg version="1.1" id="Layer_1" xmlns="http://www.w3.org/2000/svg" xmlns:xlink="http://www.w3.org/1999/xlink" x="0px" y="0px"
	 width="200px" height="200px" viewBox="0 0 200 200" enable-background="new 0 0 200 200" xml:space="preserve">
<g id="_x34_klUtB.tif">
	<g>
		<g>
			<path fill="#009FE3" d="M120.7,126.7c-3.3,2.7-6,4.7-8.7,7.3c-5.3,4-10.7,6.7-16.7,7.3c-2,0.7-4,0.7-6,0.7c-1.3,0-2.7,0-3.3,0
				c-4.7,0-9.3-0.7-14-2c-5.3-2-10-4.7-13.3-8.7c-3.3-4-5.3-8-6.7-12.7c-1.3-5.3-1.3-10-1.3-15.3c0.7-8,3.3-14.7,8.7-20.7
				c4.7-5.3,10-8.7,16-11.3c4.7-2,9.3-2.7,14.7-4c3.3-0.7,7.3-1.3,11.3-1.3c4-0.7,7.3-0.7,11.3-1.3c1.3,0,2.7-0.7,4.7-0.7
				c0-0.7,0-0.7,0-1.3c0-3.3,0-6,0-9.3c0-2-0.7-4-1.3-6c-2-4-5.3-6-9.3-7.3c-4-1.3-10,0-14,2c-4.7,2-7.3,5.3-9.3,9.3
				c0,0.7-0.7,2-0.7,2.7c-0.7,2-1.3,3.3-3.3,3.3h-0.7c-3.3-0.7-7.3-0.7-10.7-0.7S60.7,56,57.3,56c-2.7-0.7-4-3.3-3.3-5.3
				c0.7-3.3,2-6.7,3.3-10c2-4,5.3-8,8.7-11.3c6-5.3,13.3-8.7,21.3-10c2.7-0.7,5.3-0.7,8-1.3c4.7-0.7,9.3-0.7,13.3,0
				c3.3,0,7.3,0.7,10.7,2c4,1.3,7.3,2,11.3,4c5.3,2.7,10,7.3,12.7,12.7c1.3,2.7,2,5.3,2.7,8c0.7,2,0.7,4,0.7,6.7c0.7,6,0,12,0,18
				c0,10.7,0,20.7,0,31.3c0,5.3,1.3,9.3,4,13.3c1.3,2,2.7,4,4.7,6c0.7,0.7,0.7,1.3,0.7,2.7c0,1.3-0.7,2.7-1.3,3.3
				c-4,3.3-7.3,6.7-11.3,9.3c-1.3,1.3-3.3,2.7-5.3,4c-1.3,1.3-2.7,2-5.3,1.3c-0.7,0-1.3-0.7-2-0.7c-3.3-3.3-6.7-6.7-9.3-10.7
				C122,128.7,121.3,128,120.7,126.7z M116,88L116,88c0-1.3,0-2.7,0-4c0-1.3,0-1.3-1.3-1.3s-2.7,0-4,0c-2.7,0-5.3,0.7-8,0.7
				c-3.3,0.7-6.7,1.3-10,3.3c-4,2-6.7,4.7-8.7,8.7c-0.7,2-1.3,3.3-1.3,5.3C82,104.7,82,108,84,112c1.3,4.7,4.7,7.3,9.3,8
				c5.3,0.7,10-0.7,14-4c5.3-4.7,7.3-11.3,8-18C116,94.7,116,91.3,116,88z"/>
			<path fill="#009FE3" d="M100,182c-2.7,0-4,0-5.3,0c-2.7,0-6,0-9.3-0.7c-2,0-3.3,0-5.3-0.7c-2.7-0.7-6-0.7-8.7-1.3
				c-2-0.7-4.7-0.7-6.7-1.3c-3.3-0.7-7.3-2-10.7-2.7c-9.3-2.7-17.3-6.7-26-10.7c-5.3-2.7-10.7-6-16-10c-3.3-2.7-6.7-5.3-10-7.3
				c-0.7-0.7-1.3-1.3-2-2.7c-0.7-1.3-0.7-2,0.7-2h0.7c0.7,0,1.3,0.7,2.7,0.7c5.3,2.7,10,5.3,15.3,8c5.3,2.7,10,4.7,15.3,6
				c4,1.3,8,2.7,12,3.3c4,1.3,8,2,12,2.7c2,0.7,4.7,0.7,6.7,1.3c2,0.7,3.3,0.7,5.3,0.7c2.7,0.7,5.3,0.7,8,1.3c1.3,0,2.7,0,4,0.7
				c2.7,0.7,5.3,0,8,0.7c5.3,0.7,10.7,0.7,16,0.7c2.7,0,5.3,0,8.7-0.7c2.7,0,5.3-0.7,7.3-0.7c3.3-0.7,6.7-1.3,9.3-1.3
				c3.3-0.7,6.7-1.3,9.3-1.3c1.3,0,3.3-0.7,4.7-1.3c4-0.7,8-2,12-3.3c2.7-0.7,5.3-2,8-2.7c3.3-1.3,6.7-2.7,10-3.3
				c0.7-0.7,2-0.7,3.3,0c1.3,0,2.7,2,2,3.3c-0.7,0.7-1.3,1.3-2,2c-2.7,1.3-4.7,3.3-7.3,4.7c-3.3,2-7.3,4-10.7,5.3
				c-5.3,2.7-10,4-15.3,6c-2.7,0.7-6,1.3-10,2.7c-3.3,0.7-6.7,1.3-10.7,2c-2.7,0.7-5.3,0.7-8,1.3c-3.3,0.7-6,0.7-9.3,0.7
				C105.3,182,102.7,182,100,182z"/>
			<path fill="#009FE3" d="M179.3,146c-1.3,0-3.3,0-4.7,0c-2,0-4.7,0-6.7,0.7c-1.3,0.7-2.7,0-4,0.7c-0.7,0-0.7,0-1.3-0.7
				c-0.7-0.7-0.7-0.7,0-0.7c0.7-0.7,0.7-1.3,1.3-2c3.3-2,6.7-3.3,10.7-4.7c5.3-1.3,10-1.3,15.3-0.7c2.7,0,5.3,0.7,7.3,1.3
				s2.7,1.3,2.7,3.3c0,4-0.7,8-2,12s-3.3,8-5.3,11.3c-1.3,2.7-3.3,4.7-5.3,6l0,0c-0.7,0.7-1.3,0.7-2,0.7c-0.7-0.7-0.7-1.3,0-2
				c1.3-2.7,2-5.3,3.3-8.7s2.7-6.7,2.7-10.7c0-0.7,0.7-1.3,0.7-2.7c0-2-0.7-2.7-2.7-4c-2-0.7-4-0.7-6-0.7
				C181.3,146,180.7,146,179.3,146L179.3,146z"/>
		</g>
	</g>
</g>
</svg>
