<?xml version="1.0" encoding="utf-8"?>
<!-- Generator: Adobe Illustrator 18.1.1, SVG Export Plug-In . SVG Version: 6.00 Build 0)  -->
<!DOCTYPE svg PUBLIC "-//W3C//DTD SVG 1.1//EN" "http://www.w3.org/Graphics/SVG/1.1/DTD/svg11.dtd">
<svg version="1.1" id="Layer_1" xmlns="http://www.w3.org/2000/svg" xmlns:xlink="http://www.w3.org/1999/xlink" x="0px" y="0px"
	 width="200px" height="200px" viewBox="0 0 200 200" enable-background="new 0 0 200 200" xml:space="preserve">
<path id="instagram-6-icon" fill="#009FE3" d="M176.9,84.6h-17.4c1.3,4.9,2,10.1,2,15.4c0,34-27.5,61.5-61.5,61.5S38.5,134,38.5,100
	c0-5.3,0.8-10.5,2-15.4H23.1v84.6c0,4.2,3.4,7.7,7.7,7.7h138.5c4.3,0,7.7-3.4,7.7-7.7L176.9,84.6L176.9,84.6z M176.9,30.8
	c0-4.2-3.4-7.7-7.7-7.7h-23.1c-4.3,0-7.7,3.4-7.7,7.7v23.1c0,4.2,3.4,7.7,7.7,7.7h23.1c4.3,0,7.7-3.4,7.7-7.7V30.8z M100,61.5
	c-21.2,0-38.5,17.2-38.5,38.5c0,21.2,17.2,38.5,38.5,38.5c21.2,0,38.5-17.2,38.5-38.5C138.5,78.8,121.2,61.5,100,61.5 M176.9,200
	H23.1C10.3,200,0,189.7,0,176.9V23.1C0,10.3,10.3,0,23.1,0h153.9C189.7,0,200,10.3,200,23.1v153.8C200,189.7,189.7,200,176.9,200"/>
<g>
</g>
<g>
</g>
<g>
</g>
<g>
</g>
<g>
</g>
<g>
</g>
<g>
</g>
<g>
</g>
<g>
</g>
<g>
</g>
<g>
</g>
<g>
</g>
<g>
</g>
<g>
</g>
<g>
</g>
</svg>
