<?xml version="1.0" encoding="utf-8"?>
<!-- Generator: Adobe Illustrator 18.1.1, SVG Export Plug-In . SVG Version: 6.00 Build 0)  -->
<!DOCTYPE svg PUBLIC "-//W3C//DTD SVG 1.1//EN" "http://www.w3.org/Graphics/SVG/1.1/DTD/svg11.dtd">
<svg version="1.1" id="Layer_1" xmlns="http://www.w3.org/2000/svg" xmlns:xlink="http://www.w3.org/1999/xlink" x="0px" y="0px"
	 width="200px" height="200px" viewBox="0 0 200 200" enable-background="new 0 0 200 200" xml:space="preserve">
<path id="youtube-icon" fill="#009FE3" d="M38.8,0h12L59,30.8L66.6,0h12.1L64.9,45.9v31.3H53V45.9L38.8,0z M78.2,63
	c0,10,5.2,15.3,15.5,15.3c8.5,0,15.2-5.7,15.2-15.3V35.1c0-8.9-6.6-15.3-15.2-15.3c-9.3,0-15.5,6.2-15.5,15.3V63z M89.1,36
	c0-3.1,1.4-5.4,4.4-5.4c3.2,0,4.6,2.2,4.6,5.4v26.5c0,3.1-1.6,5.4-4.4,5.4c-2.9,0-4.6-2.4-4.6-5.4V36z M137.5,20.2v43.2
	c-1.3,1.6-4.2,4.3-6.2,4.3c-2.3,0-2.8-1.5-2.8-3.8V20.2h-10.6v47.6c0,5.6,1.7,10.2,7.4,10.2c3.2,0,7.6-1.7,12.2-7.1v6.3h10.6V20.2
	H137.5z M122,137c0.7,0.9,1.1,2.3,1.1,4.2v28c0,1.7-0.3,3-0.9,3.7c-1.1,1.5-3.5,1.4-5.2,0.6c-0.8-0.4-1.6-1-2.4-1.9v-33.8
	c0.7-0.7,1.4-1.3,2.1-1.7C118.5,135.2,120.8,135.3,122,137z M155.9,135.7c-3.7,0-4.5,2.6-4.5,6.4v5.5h8.9v-5.5
	C160.3,138.4,159.5,135.7,155.9,135.7z M186.7,175.7c0,13.4-10.9,24.3-24.3,24.3H37.6c-13.4,0-24.3-10.9-24.3-24.3v-61.3
	c0-13.4,10.9-24.3,24.3-24.3h124.8c13.4,0,24.3,10.9,24.3,24.3L186.7,175.7L186.7,175.7z M54.2,119H66v-10.7H31.1V119h11.7v62.8
	h11.4L54.2,119L54.2,119z M94.6,127.6H84.5v41.2c-1.2,1.5-4,4.1-5.9,4.1c-2.2,0-2.7-1.5-2.7-3.7v-41.6H65.8v45.3
	c0,11,7.5,11.1,12.9,8c2-1.2,3.9-2.8,5.8-5v6h10.1V127.6z M133.4,140.5c0-7.4-2.4-13.6-9.8-13.6c-3.6,0-6.7,2.3-9,5.1v-23.7h-10.2
	v73.5h10.2v-4.2c2.8,3.5,5.9,4.9,9.6,4.9c6.7,0,9.2-5.2,9.2-11.9V140.5z M170.7,142.2c0-9.8-4.7-15.9-14.3-15.9
	c-9.1,0-15.3,6.5-15.3,15.9v24.3c0,9.8,4.9,16.8,14.5,16.8c10.6,0,15.1-6.3,15.1-16.8v-4.1h-10.4v3.8c0,4.7-0.2,7.6-4.5,7.6
	c-4.1,0-4.4-3.5-4.4-7.6V156h19.3L170.7,142.2L170.7,142.2z"/>
<g>
</g>
<g>
</g>
<g>
</g>
<g>
</g>
<g>
</g>
<g>
</g>
<g>
</g>
<g>
</g>
<g>
</g>
<g>
</g>
<g>
</g>
<g>
</g>
<g>
</g>
<g>
</g>
<g>
</g>
</svg>
