<?xml version="1.0" encoding="UTF-8" standalone="no"?>
<svg width="200px" height="200px" viewBox="0 0 200 200" version="1.1" xmlns="http://www.w3.org/2000/svg" xmlns:xlink="http://www.w3.org/1999/xlink">
    <!-- Generator: Sketch 3.8.3 (29802) - http://www.bohemiancoding.com/sketch -->
    <title>actors access icon</title>
    <desc>Created with Sketch.</desc>
    <defs></defs>
    <g id="Page-1" stroke="none" stroke-width="1" fill="none" fill-rule="evenodd">
        <g id="actors-access-icon">
            <rect id="box" x="0" y="0" width="200" height="200"></rect>
            <path d="M125.708861,134.113924 L125.708861,104.493671 C119.548492,105.000003 112.881892,105.696198 105.708861,106.582278 C98.5358291,107.468359 93.0928456,108.502104 89.3797468,109.683544 C84.822762,111.118151 81.3417842,113.206737 78.9367089,115.949367 C76.5316335,118.691997 75.3291139,122.299556 75.3291139,126.772152 C75.3291139,129.725753 75.5822759,132.130792 76.0886076,133.987342 C76.5949392,135.843891 77.8607494,137.616025 79.8860759,139.303797 C81.8270139,140.99157 84.1476658,142.236283 86.8481013,143.037975 C89.5485367,143.839666 93.7679038,144.240506 99.5063291,144.240506 C104.063314,144.240506 108.683521,143.312246 113.367089,141.455696 C118.050656,139.599147 122.164539,137.151914 125.708861,134.113924 L125.708861,134.113924 Z M125.708861,156.139241 C123.261591,157.99579 120.223647,160.232054 116.594937,162.848101 C112.966227,165.464148 109.548539,167.531638 106.341772,169.050633 C101.869176,171.075959 97.2278722,172.573835 92.4177215,173.544304 C87.6075709,174.514773 82.333362,175 76.5949367,175 C63.0927595,175 51.7848557,170.822827 42.6708861,162.468354 C33.5569165,154.113882 29,143.438884 29,130.443038 C29,120.063239 31.3206519,111.582311 35.9620253,105 C40.6033987,98.4176886 47.1856114,93.2278671 55.7088608,89.4303797 C64.1477215,85.6328924 74.6117519,82.9324975 87.1012658,81.3291139 C99.5907797,79.7257304 112.544237,78.5443076 125.962025,77.7848101 L125.962025,77.0253165 C125.962025,69.1771759 122.755306,63.7552892 116.341772,60.7594937 C109.928238,57.7636981 100.476856,56.2658228 87.9873418,56.2658228 C80.4767557,56.2658228 72.4599582,57.5949234 63.9367089,60.2531646 C55.4134595,62.9114057 49.2953772,64.9577987 45.5822785,66.3924051 L41.4050633,66.3924051 L41.4050633,32.0886076 C46.2152139,30.8227785 54.0421399,29.3249032 64.8860759,27.5949367 C75.730012,25.8649703 86.5948823,25 97.4810127,25 C123.388315,25 142.101208,28.9873019 153.620253,36.9620253 C165.139298,44.9367487 170.898734,57.4471722 170.898734,74.4936709 L170.898734,171.202532 L125.708861,171.202532 L125.708861,156.139241 Z" id="a" fill="#00AEEF"></path>
        </g>
    </g>
</svg>