<?xml version="1.0" encoding="utf-8"?>
<!-- Generator: Adobe Illustrator 18.1.1, SVG Export Plug-In . SVG Version: 6.00 Build 0)  -->
<!DOCTYPE svg PUBLIC "-//W3C//DTD SVG 1.1//EN" "http://www.w3.org/Graphics/SVG/1.1/DTD/svg11.dtd">
<svg version="1.1" id="Layer_1" xmlns="http://www.w3.org/2000/svg" xmlns:xlink="http://www.w3.org/1999/xlink" x="0px" y="0px"
	 width="200px" height="200px" viewBox="0 0 200 200" enable-background="new 0 0 200 200" xml:space="preserve">
<g>
	<g>
		<path fill="#009FE3" d="M185.2,0H14.8C6.6,0,0,6.5,0,14.4v171.2c0,8,6.6,14.4,14.8,14.4h170.4c8.2,0,14.8-6.5,14.8-14.4V14.4
			C200,6.5,193.4,0,185.2,0z M59.3,170.4H29.7V75h29.7V170.4z M44.5,61.9c-9.5,0-17.2-7.7-17.2-17.2c0-9.5,7.7-17.2,17.2-17.2
			c9.5,0,17.2,7.7,17.2,17.2C61.7,54.2,54,61.9,44.5,61.9z M170.4,170.4h-29.6V124c0-11.1-0.2-25.3-15.4-25.3
			c-15.4,0-17.8,12.1-17.8,24.5v47.2H77.9V75h28.4v13h0.4c4-7.5,13.6-15.4,28.1-15.4c30,0,35.6,19.8,35.6,45.5V170.4z"/>
	</g>
</g>
</svg>
