<?xml version="1.0" encoding="UTF-8" standalone="no"?>
<svg width="48px" height="48px" viewBox="0 0 48 48" version="1.1" xmlns="http://www.w3.org/2000/svg" xmlns:xlink="http://www.w3.org/1999/xlink">
    <!-- Generator: Sketch 40.3 (33839) - http://www.bohemiancoding.com/sketch -->
    <title>mail</title>
    <desc>Created with Sketch.</desc>
    <defs></defs>
    <g id="Page-1" stroke="none" stroke-width="1" fill="none" fill-rule="evenodd">
        <g id="mail" fill="#00AEEF">
            <path d="M2.19230769,11.4230769 C1.42307308,11.0384596 0.923078077,10.6153869 0.692307692,10.1538462 C0.538460769,9.69230538 0.557691346,9.38461615 0.75,9.23076923 C0.942308654,9.07692231 1.38461192,9 2.07692308,9 L24.1153846,9 L46.1538462,9 C46.8461573,9 47.2884606,9.07692231 47.4807692,9.23076923 C47.6730779,9.38461615 47.6923085,9.69230538 47.5384615,10.1538462 C47.3076912,10.6153869 46.8076962,11.0384596 46.0384615,11.4230769 C33.3460904,18.3461885 26.8461554,21.8846146 26.5384615,22.0384615 C25.9230738,22.3461554 25.1153896,22.5 24.1153846,22.5 C23.1153796,22.5 22.3076954,22.3461554 21.6923077,22.0384615 C21.3846138,21.8846146 14.8846788,18.3461885 2.19230769,11.4230769 L2.19230769,11.4230769 Z M47.0769231,11.8846154 C47.6153873,11.8076919 47.903846,11.7884613 47.9423077,11.8269231 C47.9807694,11.8653848 48,12.0769212 48,12.4615385 L48,36.1153846 C48,36.6538488 47.7115413,37.192305 47.1346154,37.7307692 C46.5576894,38.2692335 46.0000027,38.5384615 45.4615385,38.5384615 L24.1153846,38.5384615 L2.76923077,38.5384615 C2.15384308,38.5384615 1.53846462,38.2692335 0.923076923,37.7307692 C0.307689231,37.192305 0,36.6538488 0,36.1153846 L0,12.4615385 C0,11.7692273 0.346150385,11.5769215 1.03846154,11.8846154 C1.26923192,12.0384623 2.23076077,12.6730713 3.92307692,13.7884615 C5.61539308,14.9038517 7.71152596,16.3076838 10.2115385,18 C12.711551,19.6923162 14.7307615,21.0384565 16.2692308,22.0384615 L6.69230769,32.7692308 C6.46153731,33.0000012 6.42307615,33.1923069 6.57692308,33.3461538 C6.65384654,33.4230773 6.76923,33.4423079 6.92307692,33.4038462 C7.07692385,33.3653844 7.19230731,33.3076927 7.26923077,33.2307692 L18.5769231,23.6538462 C20.1923158,24.7307746 21.2307669,25.3846142 21.6923077,25.6153846 C22.3076954,25.9230785 23.1153796,26.0769231 24.1153846,26.0769231 C25.1153896,26.0769231 25.9230738,25.9230785 26.5384615,25.6153846 C27.0000023,25.3846142 28.0384535,24.7307746 29.6538462,23.6538462 L40.9615385,33.2307692 C41.0384619,33.3076927 41.1538454,33.3653844 41.3076923,33.4038462 C41.4615392,33.4423079 41.5769227,33.4230773 41.6538462,33.3461538 C41.7307696,33.2692304 41.6538473,33.0769246 41.4230769,32.7692308 L31.9615385,22.0384615 C33.5000077,21.0384565 35.4999877,19.6923162 37.9615385,18 C40.4230892,16.3076838 42.4999915,14.9038517 44.1923077,13.7884615 C45.8846238,12.6730713 46.8461527,12.0384623 47.0769231,11.8846154 L47.0769231,11.8846154 Z" id=""></path>
        </g>
    </g>
</svg>