<?xml version="1.0" encoding="UTF-8" standalone="no"?>
<svg width="48px" height="48px" viewBox="0 0 48 48" version="1.1" xmlns="http://www.w3.org/2000/svg" xmlns:xlink="http://www.w3.org/1999/xlink">
    <!-- Generator: Sketch 40.3 (33839) - http://www.bohemiancoding.com/sketch -->
    <title>phone</title>
    <desc>Created with Sketch.</desc>
    <defs></defs>
    <g id="Page-1" stroke="none" stroke-width="1" fill="none" fill-rule="evenodd">
        <g id="phone" fill="#00AEEF">
            <path d="M44.7515574,43 C43.7080739,44.2173974 42.686345,45.1304317 41.68634,45.7391304 C40.686335,46.3478291 39.8602563,46.6956517 39.2080791,46.7826087 C38.5559019,46.8695657 37.6211287,46.9130435 36.4037313,46.9130435 C33.01241,46.9130435 28.9689721,45.1739304 24.2732965,41.6956522 C20.5341474,38.9999865 17.1428769,36.0869722 14.0993834,32.9565217 C10.1863204,28.8695448 6.75157214,24.2174174 3.79503562,19 C1.18632692,14.1304104 0.403726054,10.1304504 1.44720953,7 C1.96895127,5.34781783 3.1863304,3.91304957 5.09938345,2.69565217 L5.22981823,2.56521739 C6.79504345,1.52173391 8.18633388,1 9.40373127,1 C11.0559134,1 12.5341595,1.78260087 13.8385139,3.34782609 L13.9689487,3.47826087 C15.9689587,6.08696957 17.3602491,8.13042739 18.1428617,9.60869565 C19.4472161,12.3043613 19.4037382,14.6086861 18.0124269,16.5217391 C16.9689434,17.9130504 16.4472095,18.9130404 16.4472095,19.5217391 C16.4472095,19.78261 17.0124213,20.5652109 18.1428617,21.8695652 L18.2732965,22 C20.3602634,24.3478378 21.4906869,25.6086948 21.6646008,25.7826087 C21.7515578,25.7826087 21.8385134,25.8260865 21.9254704,25.9130435 C22.0124274,26.0000004 22.099383,26.0869561 22.18634,26.173913 L22.4472095,26.4347826 C24.1863487,28.1739217 25.4472056,29.3913009 26.2298182,30.0869565 L26.360253,30.2173913 C27.1428656,30.913047 27.6645995,31.2608696 27.9254704,31.2608696 C28.3602552,31.2608696 29.6211121,30.6087022 31.7080791,29.3043478 C32.3167778,28.869563 33.0559008,28.6521739 33.9254704,28.6521739 C35.4906956,28.6521739 37.3819811,29.3043413 39.5993834,30.6086957 C41.8167858,31.91305 43.53416,33.173907 44.7515574,34.3913043 C47.3602661,37.000013 47.3602661,39.8695496 44.7515574,43 Z" id=""></path>
        </g>
    </g>
</svg>