<?xml version="1.0" encoding="utf-8"?>
<!-- Generator: Adobe Illustrator 20.0.0, SVG Export Plug-In . SVG Version: 6.00 Build 0)  -->
<svg version="1.1" id="Layer_1" xmlns="http://www.w3.org/2000/svg" xmlns:xlink="http://www.w3.org/1999/xlink" x="0px" y="0px"
	 viewBox="0 0 200 200" enable-background="new 0 0 200 200" xml:space="preserve">
<g>
	<path fill="#009FE3" d="M170.7,29.3C190.2,48.9,200,72.4,200,100c0,27.6-9.8,51.1-29.3,70.7C151.1,190.2,127.6,200,100,200
		c-27.6,0-51.1-9.8-70.7-29.3C9.8,151.1,0,127.6,0,100c0-27.6,9.8-51.1,29.3-70.7C48.9,9.8,72.4,0,100,0
		C127.6,0,151.1,9.8,170.7,29.3z M51.9,96.2c0.6-17,2.4-31.1,5.3-42.3c-9.3-2.6-18.8-6.6-28.4-12C16,57.2,9.1,75.3,8.2,96.2H51.9z
		 M51.9,103.8H8.2c1,20.8,7.8,38.9,20.7,54.3c10.9-5.8,20.3-9.8,28.4-12C54.3,134.9,52.6,120.8,51.9,103.8z M78.4,10.6
		c-17,3.8-31.6,12.2-43.8,25c5.1,2.9,13.5,6.2,25,10.1C64.4,30.3,70.7,18.6,78.4,10.6z M34.6,164.4c12.8,12.8,27.4,21.2,43.8,25
		c-8-8.3-14.4-20.2-19.2-35.6C49.8,157.1,41.7,160.6,34.6,164.4z M96.2,59.6c-12.5-0.6-22.9-1.9-31.2-3.8c-3.2,12.2-5,25.6-5.3,40.4
		h36.5V59.6z M59.6,103.8c0.3,14.7,2.1,28.2,5.3,40.4c9.9-2.2,20.3-3.7,31.2-4.3v-36.1H59.6z M96.2,8.7c-11.5,2.9-21.2,16-28.8,39.4
		c7.7,1.9,17.3,3.2,28.8,3.8V8.7z M96.2,148.1c-11.5,0.6-21.2,1.9-28.8,3.8c7.7,23.4,17.3,36.5,28.8,39.4V148.1z M103.8,51.9
		c11.9-0.6,21.5-1.9,28.8-3.8c-3.2-10.9-7.5-19.8-12.7-26.7c-5.3-6.9-10.7-11.1-16.1-12.7V51.9z M103.8,59.6v36.5h36.1
		c-0.3-14.7-2.1-28.2-5.3-40.4C126.3,57.7,116,59,103.8,59.6z M103.8,139.9c10.3,0.3,20.5,1.8,30.8,4.3c3.2-12.2,5-25.6,5.3-40.4
		h-36.1V139.9z M103.8,191.3c5.4-1.6,10.8-5.8,16.1-12.7c5.3-6.9,9.5-15.8,12.7-26.7c-7.4-1.9-17-3.2-28.8-3.8V191.3z M165.4,35.6
		c-12.8-12.8-27.4-21.2-43.8-25c7.4,7.7,13.6,19.6,18.8,35.6C149.4,43.3,157.7,39.7,165.4,35.6z M121.6,189.4
		c16.3-3.8,30.9-12.2,43.8-25c-7.7-4.2-16-7.7-25-10.6C135.3,169.9,129,181.7,121.6,189.4z M148.1,103.8
		c-0.6,15.7-2.6,29.8-5.8,42.3c8.7,2.6,18.3,6.6,28.8,12c12.8-15.4,19.7-33.5,20.7-54.3H148.1z M148.1,96.2h43.8
		c-1-20.8-7.9-38.9-20.7-54.3c-10.9,5.8-20.4,9.8-28.4,12C145.7,65.1,147.4,79.2,148.1,96.2z"/>
</g>
</svg>
